<?xml version="1.0" encoding="utf-8"?>
<!-- Generator: Adobe Illustrator 22.0.1, SVG Export Plug-In . SVG Version: 6.00 Build 0)  -->
<svg version="1.1" id="Camada_1" xmlns="http://www.w3.org/2000/svg" xmlns:xlink="http://www.w3.org/1999/xlink" x="0px" y="0px"
	 viewBox="0 0 80 80" style="enable-background:new 0 0 80 80;" xml:space="preserve">
<path d="M40,56.8c-1.4,0-2.5-1.1-2.5-2.5V28.8c0-1.4,1.1-2.5,2.5-2.5s2.5,1.1,2.5,2.5v25.5C42.5,55.7,41.4,56.8,40,56.8z"/>
<path d="M40,62.3c-1.8,0-3.2,1.4-3.2,3.2c0,1.8,1.4,3.2,3.2,3.2c1.8,0,3.2-1.4,3.2-3.2C43.2,63.7,41.8,62.3,40,62.3
	C40,62.3,40,62.3,40,62.3z"/>
<path d="M76.7,79.2C76.7,79.2,76.7,79.2,76.7,79.2H3.3c-0.9,0-1.7-0.4-2.1-1.2c-0.5-0.7-0.5-1.7-0.1-2.4L37.8,2.2
	c0.8-1.7,3.6-1.7,4.5,0l36.4,72.9c0.3,0.4,0.6,1,0.6,1.6C79.2,78,78.1,79.2,76.7,79.2L76.7,79.2z M4.8,75.6l70.3,0.1L40,5.8
	L4.8,75.6z"/>
</svg>
